<?xml version="1.0" encoding="utf-8"?>
<svg version="1.1" xmlns:xlink="http://www.w3.org/1999/xlink" width="31px" height="21px" xmlns="http://www.w3.org/2000/svg">
  <g transform="matrix(1 0 0 1 -120 -79 )">
    <path d="M 15.5 11.4545454545455  L 15.5 5.72727272727273  L 9.6875 5.72727272727273  L 9.6875 11.4545454545455  L 15.5 11.4545454545455  Z M 7.75 15.2727272727273  L 17.4375 15.2727272727273  L 17.4375 17.1818181818182  L 7.75 17.1818181818182  L 7.75 15.2727272727273  Z M 7.75 3.81818181818182  L 17.4375 3.81818181818182  L 17.4375 13.3636363636364  L 7.75 13.3636363636364  L 7.75 3.81818181818182  Z M 19.375 15.2727272727273  L 27.125 15.2727272727273  L 27.125 17.1818181818182  L 19.375 17.1818181818182  L 19.375 15.2727272727273  Z M 19.375 11.4545454545455  L 27.125 11.4545454545455  L 27.125 13.3636363636364  L 19.375 13.3636363636364  L 19.375 11.4545454545455  Z M 19.375 7.63636363636364  L 27.125 7.63636363636364  L 27.125 9.54545454545455  L 19.375 9.54545454545455  L 19.375 7.63636363636364  Z M 19.375 3.81818181818182  L 27.125 3.81818181818182  L 27.125 5.72727272727273  L 19.375 5.72727272727273  L 19.375 3.81818181818182  Z M 3.58740234375 18.8075284090909  C 3.77913411458333 18.6186079545455  3.875 18.3948863636364  4 18.1363636363636  L 4 3.81818181818182  L 2 3.81818181818182  L 2 18.1363636363636  C 1.9375 18.3948863636364  2.03336588541667 18.6186079545455  2.22509765625 18.8075284090909  C 2.41682942708333 18.9964488636364  2.64388020833333 19.0909090909091  2.90625 19.0909090909091  C 3.16861979166667 19.0909090909091  3.39567057291667 18.9964488636364  3.58740234375 18.8075284090909  Z M 28.77490234375 18.8075284090909  C 28.9666341145833 18.6186079545455  29.0625 18.3948863636364  29 18.1363636363636  L 29 2  L 6 2  L 6 18.1363636363636  C 5.8125 18.4644886363636  5.75699869791667 18.7826704545455  5.64599609375 19  L 28.09375 19  C 28.3561197916667 19.0909090909091  28.5831705729167 18.9964488636364  28.77490234375 18.8075284090909  Z M 3.875 0  L 31 0  L 31 18.1363636363636  C 31 18.9318181818182  30.7174479166667 19.6079545454545  30.15234375 20.1647727272727  C 29.5872395833333 20.7215909090909  28.9010416666667 21  28.09375 21  L 2.90625 21  C 2.09895833333333 21  1.41276041666667 20.7215909090909  0.84765625 20.1647727272727  C 0.282552083333333 19.6079545454545  0 18.9318181818182  0 18.1363636363636  L 0 1.90909090909091  L 3.875 1.90909090909091  L 3.875 0  Z " fill-rule="nonzero" fill="#ffffff" stroke="none" transform="matrix(1 0 0 1 120 79 )" />
  </g>
</svg>