<?xml version="1.0" encoding="utf-8"?>
<svg version="1.1" xmlns:xlink="http://www.w3.org/1999/xlink" width="24px" height="19px" xmlns="http://www.w3.org/2000/svg">
  <g transform="matrix(1 0 0 1 -350 -76 )">
    <path d="M 11.1928251121076 14.25  L 11.9461883408072 14.25  L 13.5067264573991 12.6846590909091  L 11.4618834080717 10.6335227272727  L 9.90134529147982 12.1988636363636  L 9.90134529147982 12.9545454545455  L 11.1928251121076 12.9545454545455  L 11.1928251121076 14.25  Z M 17.8520179372197 4.97940340909091  C 18.0044843049327 4.8264678030303  18.0089686098655 4.6780303030303  17.8654708520179 4.53409090909091  C 17.7219730941704 4.39015151515151  17.5739910313901 4.39464962121212  17.4215246636771 4.54758522727273  L 12.7130044843049 9.27059659090909  C 12.5605381165919 9.4235321969697  12.5560538116592 9.5719696969697  12.6995515695067 9.71590909090909  C 12.8430493273543 9.85984848484848  12.9910313901345 9.85535037878788  13.1434977578475 9.70241477272727  L 17.8520179372197 4.97940340909091  Z M 18.6726457399103 12.1583806818182  C 18.8520179372197 12.2303503787879  18.9417040358744 12.3607954545455  18.9417040358744 12.5497159090909  L 18.9417040358744 15.1136363636364  C 18.9417040358744 16.1841856060606  18.5627802690583 17.0995501893939  17.804932735426 17.8597301136364  C 17.0470852017937 18.6199100378788  16.1345291479821 19  15.067264573991 19  L 3.87443946188341 19  C 2.80717488789238 19  1.89461883408072 18.6199100378788  1.13677130044843 17.8597301136364  C 0.378923766816143 17.0995501893939  0 16.1841856060606  0 15.1136363636364  L 0 3.88636363636364  C 0 2.81581439393939  0.378923766816143 1.90044981060606  1.13677130044843 1.14026988636364  C 1.89461883408072 0.38008996212121  2.80717488789238 0  3.87443946188341 0  L 15.067264573991 0  C 15.6322869955157 0  16.1569506726457 0.11245265151515  16.6412556053812 0.337357954545454  C 16.7757847533632 0.400331439393938  16.8565022421525 0.503787878787878  16.8834080717489 0.647727272727272  C 16.9103139013453 0.800662878787878  16.8699551569507 0.931107954545454  16.762331838565 1.0390625  L 16.1031390134529 1.70028409090909  C 15.9775784753363 1.82623106060606  15.8340807174888 1.86221590909091  15.6726457399103 1.80823863636364  C 15.4663677130045 1.75426136363636  15.2645739910314 1.72727272727273  15.067264573991 2  L 3.87443946188341 2  C 3.28251121076233 1.72727272727273  2.77578475336323 1.93868371212121  2.3542600896861 2.36150568181818  C 1.93273542600897 2.78432765151515  1.7219730941704 3.29261363636364  2 3.88636363636364  L 2 15.1136363636364  C 1.7219730941704 15.7073863636364  1.93273542600897 16.2156723484848  2.3542600896861 16.6384943181818  C 2.77578475336323 17.0613162878788  3.28251121076233 17.2727272727273  3.87443946188341 17  L 15.067264573991 17  C 15.6591928251121 17.2727272727273  16.1659192825112 17.0613162878788  16.5874439461883 16.6384943181818  C 17.0089686098655 16.2156723484848  17.219730941704 15.7073863636364  17.219730941704 15.1136363636364  L 17.219730941704 13.4133522727273  C 17.219730941704 13.2964015151515  17.2600896860987 13.1974431818182  17.3408071748879 13.1164772727273  L 18.2017937219731 12.2528409090909  C 18.3363228699552 12.1178977272727  18.4932735426009 12.0864109848485  18.6726457399103 12.1583806818182  Z M 8.60986547085202 11.6590909090909  L 17.6502242152466 2.59090909090909  L 21.52466367713 6.47727272727273  L 12.4843049327354 15.5454545454545  L 8.60986547085202 15.5454545454545  L 8.60986547085202 11.6590909090909  Z M 24 3.45454545454545  C 24 3.81439393939394  23.8744394618834 4.12026515151515  23.6233183856502 4.37215909090909  L 22.3856502242152 5.61363636363636  L 18.5112107623318 1.72727272727273  L 19.7488789237668 0.485795454545454  C 20 0.233901515151513  20.304932735426 0.107954545454546  20.6636771300448 0.107954545454546  C 21.0224215246637 0.107954545454546  21.3273542600897 0.233901515151513  21.5784753363229 0.485795454545454  L 23.6233183856502 2.53693181818182  C 23.8744394618834 2.78882575757575  24 3.09469696969697  24 3.45454545454545  Z " fill-rule="nonzero" fill="#ffffff" stroke="none" transform="matrix(1 0 0 1 350 76 )" />
  </g>
</svg>