<?xml version="1.0" encoding="utf-8"?>
<svg version="1.1" xmlns:xlink="http://www.w3.org/1999/xlink" width="100px" height="100px" xmlns="http://www.w3.org/2000/svg">
  <g transform="matrix(1 0 0 1 -161 -80 )">
    <path d="M 30.5803571428571 3.96205357142857  C 36.7559523809524 1.32068452380952  43.2291666666667 0  50 0  C 56.7708333333333 0  63.2440476190476 1.32068452380952  69.4196428571429 3.96205357142857  C 75.5952380952381 6.60342261904762  80.9151785714286 10.15625  85.3794642857143 14.6205357142857  C 89.84375 19.0848214285714  93.3965773809524 24.4047619047619  96.0379464285714 30.5803571428571  C 98.6793154761905 36.7559523809524  100 43.2291666666667  100 50  C 100 56.733630952381  98.6886160714286 63.188244047619  96.0658482142857 69.3638392857143  C 93.4430803571429 75.5394345238095  89.8995535714286 80.859375  85.4352678571429 85.3236607142857  C 80.9709821428571 89.7879464285714  75.6510416666667 93.3500744047619  69.4754464285714 96.0100446428571  C 63.2998511904762 98.6700148809524  56.8080357142857 100  50 100  C 43.1919642857143 100  36.7001488095238 98.6793154761905  30.5245535714286 96.0379464285714  C 24.3489583333333 93.3965773809524  19.038318452381 89.8344494047619  14.5926339285714 85.3515625  C 10.1469494047619 80.8686755952381  6.60342261904762 75.5487351190476  3.96205357142857 69.3917410714286  C 1.32068452380952 63.2347470238095  0 56.7708333333333  0 50  C 0 43.2291666666667  1.32068452380952 36.7559523809524  3.96205357142857 30.5803571428571  C 6.60342261904762 24.4047619047619  10.15625 19.0848214285714  14.6205357142857 14.6205357142857  C 19.0848214285714 10.15625  24.4047619047619 6.60342261904762  30.5803571428571 3.96205357142857  Z M 67.4665178571429 57.1428571428571  C 76.3950892857143 57.1428571428571  82.0870535714286 63.2254464285714  84.5424107142857 75.390625  C 90.0855654761905 67.7641369047619  92.8571428571429 59.3005952380952  92.8571428571429 50  C 92.8571428571429 44.1964285714286  91.7224702380952 38.6532738095238  89.453125 33.3705357142857  C 87.1837797619048 28.0877976190476  84.1331845238095 23.5305059523809  80.3013392857143 19.6986607142857  C 76.4694940476191 15.8668154761905  71.9122023809524 12.8162202380952  66.6294642857143 10.546875  C 61.3467261904762 8.27752976190476  55.8035714285714 7.14285714285714  50 7.14285714285714  C 44.1964285714286 7.14285714285714  38.6532738095238 8.27752976190476  33.3705357142857 10.546875  C 28.0877976190476 12.8162202380952  23.530505952381 15.8668154761905  19.6986607142857 19.6986607142857  C 15.8668154761905 23.5305059523809  12.8162202380952 28.0877976190476  10.546875 33.3705357142857  C 8.27752976190476 38.6532738095238  7.14285714285714 44.1964285714286  7.14285714285714 50  C 7.14285714285714 59.3005952380952  9.91443452380953 67.7641369047619  15.4575892857143 75.390625  C 17.9129464285714 63.2254464285714  23.6049107142857 57.1428571428571  32.5334821428571 57.1428571428571  C 37.4069940476191 61.9047619047619  43.2291666666667 64.2857142857143  50 64.2857142857143  C 56.7708333333333 64.2857142857143  62.593005952381 61.9047619047619  67.4665178571429 57.1428571428571  Z M 65.1506696428571 54.4363839285714  C 69.3359375 50.2511160714286  71.4285714285714 45.2008928571429  71.4285714285714 39.2857142857143  C 71.4285714285714 33.3705357142857  69.3359375 28.3203125  65.1506696428571 24.1350446428571  C 60.9654017857143 19.9497767857143  55.9151785714286 17.8571428571429  50 17.8571428571429  C 44.0848214285714 17.8571428571429  39.0345982142857 19.9497767857143  34.8493303571429 24.1350446428571  C 30.6640625 28.3203125  28.5714285714286 33.3705357142857  28.5714285714286 39.2857142857143  C 28.5714285714286 45.2008928571429  30.6640625 50.2511160714286  34.8493303571429 54.4363839285714  C 39.0345982142857 58.6216517857143  44.0848214285714 60.7142857142857  50 60.7142857142857  C 55.9151785714286 60.7142857142857  60.9654017857143 58.6216517857143  65.1506696428571 54.4363839285714  Z " fill-rule="nonzero" fill="#5eaab7" stroke="none" transform="matrix(1 0 0 1 161 80 )" />
  </g>
</svg>